<?xml version="1.0" standalone="no"?>
<svg version="1.2" xmlns="http://www.w3.org/2000/svg" xmlns:xlink="http://www.w3.org/1999/xlink" overflow="visible" preserveAspectRatio="none" viewBox="0 0 24 24" width="64" height="64"><g><path xmlns:default="http://www.w3.org/2000/svg" id="users" d="M8.18,11.99c-0.55-0.78-0.85-1.71-0.84-2.67c0-0.23,0.02-0.46,0.05-0.69C6.94,8.79,6.47,8.88,6,8.88  c-0.42,0-0.84-0.08-1.24-0.22c-0.34-0.12-0.68-0.27-1-0.44c-0.14-0.1-0.3-0.17-0.46-0.23C2.43,7.99,2,9.22,2,11.67  c-0.03,0.48,0.19,0.94,0.58,1.23C3,13.19,3.49,13.33,4,13.32h1.4C6.08,12.48,7.1,11.99,8.18,11.99L8.18,11.99z M19.33,18.62  c0-0.37,0-0.73,0-1.08c-0.03-0.38-0.08-0.76-0.15-1.13c-0.07-0.38-0.16-0.76-0.28-1.13c-0.12-0.35-0.27-0.68-0.45-1  c-0.17-0.31-0.39-0.59-0.65-0.84c-0.26-0.24-0.56-0.43-0.89-0.56c-0.37-0.14-0.76-0.21-1.16-0.21c-0.16,0.04-0.32,0.12-0.45,0.22  l-0.76,0.5c-1.17,0.74-2.61,0.92-3.93,0.5c-0.39-0.12-0.76-0.28-1.11-0.5l-0.76-0.5c-0.13-0.1-0.29-0.18-0.45-0.22  c-0.4,0-0.79,0.07-1.16,0.21C6.8,13.01,6.5,13.2,6.24,13.44c-0.26,0.25-0.48,0.53-0.65,0.84c-0.18,0.32-0.33,0.65-0.45,1  c-0.12,0.37-0.21,0.75-0.28,1.13c-0.07,0.37-0.12,0.75-0.15,1.13c0,0.35,0,0.71,0,1.08c-0.05,0.75,0.23,1.47,0.76,2  c0.55,0.49,1.26,0.75,2,0.72h9.1c0.74,0.03,1.45-0.23,2-0.72C19.1,20.09,19.38,19.37,19.33,18.62L19.33,18.62z M7.89,3.44  C7.39,2.93,6.71,2.65,6,2.66C5.29,2.65,4.61,2.93,4.12,3.44C3.61,3.93,3.33,4.61,3.34,5.32C3.33,6.03,3.61,6.71,4.12,7.2  C4.61,7.71,5.29,8,6,7.99C6.71,8,7.39,7.72,7.88,7.21c0.51-0.49,0.79-1.17,0.78-1.88C8.67,4.62,8.4,3.94,7.89,3.44z M14.83,6.5  C14.09,5.74,13.06,5.31,12,5.33c-2.21,0-4,1.79-4,4s1.79,4,4,4s4-1.79,4-4C16.02,8.27,15.59,7.24,14.83,6.5z M22,11.67  c0-2.45-0.43-3.68-1.3-3.68c-0.16,0.05-0.31,0.13-0.45,0.22c-0.32,0.17-0.66,0.32-1,0.44C18.85,8.8,18.43,8.88,18,8.88  c-0.47,0-0.94-0.08-1.38-0.24c0.03,0.23,0.05,0.46,0.05,0.69c0,0.95-0.3,1.88-0.85,2.66c1.07,0.01,2.08,0.5,2.76,1.33H20  c0.51,0.02,1.02-0.13,1.44-0.42C21.82,12.61,22.03,12.15,22,11.67L22,11.67z M19.88,3.44c-1.04-1.04-2.72-1.04-3.76-0.01  c0,0-0.01,0.01-0.01,0.01c-0.51,0.49-0.79,1.17-0.78,1.88c-0.01,0.71,0.27,1.39,0.78,1.88c1.04,1.04,2.72,1.04,3.76,0.01  c0,0,0.01-0.01,0.01-0.01c0.51-0.49,0.79-1.17,0.78-1.88C20.67,4.61,20.39,3.93,19.88,3.44z" style="fill: rgb(151, 197, 140);"/></g></svg>