<?xml version="1.0" standalone="no"?>
<svg version="1.2" xmlns="http://www.w3.org/2000/svg" xmlns:xlink="http://www.w3.org/1999/xlink" overflow="visible" preserveAspectRatio="none" viewBox="0 0 870 408" width="870" height="408"><g transform="translate(1, 1)"><defs><path id="path-1594432348252273" d="M0 0 C0 0 868 0 868 0 C868 0 868 406.00000000000034 868 406.00000000000034 C868 406.00000000000034 0 406.00000000000034 0 406.00000000000034 C0 406.00000000000034 0 0 0 0 Z"/><pattern id="pattern-1594432348277279" height="130.17241379310346%" patternUnits="objectBoundingBox" width="100%" x="0%" y="-30.17241379310345%"><image xmlns:xlink="http://www.w3.org/1999/xlink" xlink:href="https://s3.amazonaws.com/upload.uxpin/files/1113311/1076315/IMG_0657-ee2992d2f320577a57a106d8011eb5b1-229054.JPG?t=1594432339057" height="3000" transform="scale(0.217, 0.217)" width="4000"/></pattern></defs><g transform="translate(0, 0)"><path style="stroke: rgb(140, 140, 140); stroke-width: 1; stroke-linecap: butt; stroke-linejoin: miter; fill: url(&quot;#pattern-1594432348277279&quot;);" d="M0 0 C0 0 868 0 868 0 C868 0 868 406.00000000000034 868 406.00000000000034 C868 406.00000000000034 0 406.00000000000034 0 406.00000000000034 C0 406.00000000000034 0 0 0 0 Z"/></g></g></svg>