<?xml version="1.0" standalone="no"?>
<svg version="1.2" xmlns="http://www.w3.org/2000/svg" xmlns:xlink="http://www.w3.org/1999/xlink" overflow="visible" preserveAspectRatio="none" viewBox="0 0 24 24" width="64" height="64"><g><path xmlns:default="http://www.w3.org/2000/svg" id="usd" d="M16.86,15c0-0.34-0.04-0.68-0.14-1c-0.08-0.28-0.19-0.55-0.33-0.8c-0.15-0.25-0.33-0.47-0.55-0.66  c-0.21-0.19-0.42-0.36-0.65-0.52c-0.25-0.17-0.52-0.31-0.79-0.44l-0.79-0.36l-0.84-0.33L12,10.63l-0.63-0.28  c-0.19-0.1-0.37-0.22-0.54-0.35c-0.14-0.11-0.28-0.22-0.41-0.34c-0.13-0.12-0.24-0.26-0.31-0.43c-0.23-0.61-0.01-1.3,0.54-1.66  c0.48-0.32,1.04-0.47,1.61-0.45c0.3,0,0.6,0.04,0.89,0.12c0.27,0.07,0.53,0.16,0.78,0.27c0.21,0.1,0.41,0.21,0.61,0.33l0.41,0.28  l0.15,0.15c0.08,0.07,0.18,0.09,0.28,0.07c0.11-0.01,0.2-0.07,0.24-0.17l0.84-1.52c0.09-0.13,0.07-0.3-0.05-0.4L16.25,6.1l-0.41-0.3  c-0.21-0.15-0.43-0.28-0.66-0.39c-0.29-0.14-0.6-0.26-0.91-0.35c-0.37-0.12-0.76-0.2-1.15-0.24V3c0.01-0.18-0.13-0.32-0.31-0.33  c-0.01,0-0.01,0-0.02,0h-1.4C11.21,2.68,11.07,2.82,11.06,3v1.88C10.05,5.04,9.12,5.53,8.4,6.27c-0.65,0.68-1.01,1.58-1,2.52  c0,0.27,0.03,0.54,0.09,0.81c0.05,0.24,0.13,0.47,0.22,0.69c0.09,0.22,0.22,0.42,0.37,0.6c0.14,0.18,0.29,0.35,0.45,0.51  c0.17,0.16,0.36,0.31,0.56,0.44l0.59,0.37c0.16,0.09,0.38,0.2,0.65,0.32l0.64,0.28l0.64,0.26l0.83,0.34l0.69,0.33  c0.22,0.1,0.42,0.23,0.61,0.39c0.14,0.13,0.25,0.28,0.35,0.44c0.1,0.17,0.16,0.36,0.16,0.55c0.02,0.51-0.22,0.99-0.64,1.27  c-0.43,0.3-0.95,0.46-1.48,0.45c-0.26,0-0.52-0.03-0.77-0.08c-0.94-0.2-1.82-0.65-2.53-1.3l0,0c-0.06-0.07-0.16-0.11-0.25-0.09  c-0.09,0-0.18,0.05-0.24,0.12l-1.12,1.39c-0.11,0.12-0.11,0.31,0,0.43l0.2,0.19c0.15,0.14,0.31,0.27,0.48,0.39  c0.55,0.43,1.17,0.77,1.83,1c0.43,0.15,0.88,0.26,1.33,0.32V21c0.01,0.18,0.15,0.32,0.33,0.33h1.41c0.18,0.01,0.32-0.13,0.33-0.31  c0-0.01,0-0.01,0-0.02v-1.83c1.04-0.14,1.99-0.65,2.69-1.42c0.67-0.75,1.02-1.73,1-2.74l0,0L16.86,15z" style="fill: rgb(151, 197, 140);"/></g></svg>